<mxfile host="Electron" modified="2023-06-07T08:24:26.163Z" agent="Mozilla/5.0 (Windows NT 10.0; Win64; x64) AppleWebKit/537.36 (KHTML, like Gecko) draw.io/21.2.8 Chrome/112.0.5615.165 Electron/24.2.0 Safari/537.36" etag="WRCm_65lieTU9WCecbYG" version="21.2.8" type="device">
  <diagram name="第 1 页" id="a0uEIfFNzjR0b_d01mtk">
    <mxGraphModel dx="863" dy="506" grid="1" gridSize="10" guides="1" tooltips="1" connect="1" arrows="1" fold="1" page="1" pageScale="1" pageWidth="827" pageHeight="1169" math="0" shadow="0">
      <root>
        <mxCell id="0" />
        <mxCell id="1" parent="0" />
        <mxCell id="o4_kayTOdFwrDbjzOuFa-1" value="function Star(){}&amp;nbsp;" style="rounded=0;whiteSpace=wrap;html=1;fillColor=#f5f5f5;strokeColor=#666666;fontColor=#333333;" parent="1" vertex="1">
          <mxGeometry x="140" y="90" width="170" height="80" as="geometry" />
        </mxCell>
        <mxCell id="o4_kayTOdFwrDbjzOuFa-3" value="prototype&lt;br&gt;&lt;br&gt;prototype.constructor" style="rounded=0;whiteSpace=wrap;html=1;fillColor=#f5f5f5;fontColor=#333333;strokeColor=#666666;" parent="1" vertex="1">
          <mxGeometry x="450" y="90" width="170" height="80" as="geometry" />
        </mxCell>
        <mxCell id="o4_kayTOdFwrDbjzOuFa-4" value="Jay.__proto__.constructor&lt;br&gt;&lt;br&gt;new Star()&lt;br&gt;&lt;br&gt;Jay.__proto__" style="rounded=0;whiteSpace=wrap;html=1;align=center;fillColor=#f5f5f5;fontColor=#333333;strokeColor=#666666;" parent="1" vertex="1">
          <mxGeometry x="310" y="230" width="170" height="80" as="geometry" />
        </mxCell>
        <mxCell id="o4_kayTOdFwrDbjzOuFa-19" value="" style="endArrow=classic;html=1;rounded=0;exitX=-0.01;exitY=0.163;exitDx=0;exitDy=0;exitPerimeter=0;entryX=0.587;entryY=1.016;entryDx=0;entryDy=0;entryPerimeter=0;" parent="1" source="o4_kayTOdFwrDbjzOuFa-4" target="o4_kayTOdFwrDbjzOuFa-1" edge="1">
          <mxGeometry width="50" height="50" relative="1" as="geometry">
            <mxPoint x="370" y="210" as="sourcePoint" />
            <mxPoint x="420" y="160" as="targetPoint" />
          </mxGeometry>
        </mxCell>
        <mxCell id="o4_kayTOdFwrDbjzOuFa-20" value="" style="endArrow=classic;html=1;rounded=0;exitX=1.012;exitY=0.866;exitDx=0;exitDy=0;exitPerimeter=0;" parent="1" source="o4_kayTOdFwrDbjzOuFa-4" target="o4_kayTOdFwrDbjzOuFa-3" edge="1">
          <mxGeometry width="50" height="50" relative="1" as="geometry">
            <mxPoint x="370" y="200" as="sourcePoint" />
            <mxPoint x="420" y="150" as="targetPoint" />
          </mxGeometry>
        </mxCell>
        <mxCell id="o4_kayTOdFwrDbjzOuFa-21" value="" style="endArrow=classic;html=1;rounded=0;exitX=0.461;exitY=1.037;exitDx=0;exitDy=0;exitPerimeter=0;entryX=0;entryY=0.5;entryDx=0;entryDy=0;" parent="1" source="o4_kayTOdFwrDbjzOuFa-1" target="o4_kayTOdFwrDbjzOuFa-4" edge="1">
          <mxGeometry width="50" height="50" relative="1" as="geometry">
            <mxPoint x="370" y="200" as="sourcePoint" />
            <mxPoint x="300" y="270" as="targetPoint" />
          </mxGeometry>
        </mxCell>
        <mxCell id="o4_kayTOdFwrDbjzOuFa-22" value="" style="endArrow=classic;html=1;rounded=0;entryX=-0.02;entryY=0.348;entryDx=0;entryDy=0;entryPerimeter=0;" parent="1" target="o4_kayTOdFwrDbjzOuFa-3" edge="1">
          <mxGeometry width="50" height="50" relative="1" as="geometry">
            <mxPoint x="310" y="118" as="sourcePoint" />
            <mxPoint x="420" y="140" as="targetPoint" />
          </mxGeometry>
        </mxCell>
        <mxCell id="o4_kayTOdFwrDbjzOuFa-23" value="实例对象&lt;br&gt;对象原型" style="rounded=0;whiteSpace=wrap;html=1;" parent="1" vertex="1">
          <mxGeometry x="330" y="320" width="130" height="50" as="geometry" />
        </mxCell>
        <mxCell id="o4_kayTOdFwrDbjzOuFa-24" value="原型对象" style="rounded=1;whiteSpace=wrap;html=1;" parent="1" vertex="1">
          <mxGeometry x="470" y="60" width="120" height="20" as="geometry" />
        </mxCell>
        <mxCell id="o4_kayTOdFwrDbjzOuFa-25" value="构造函数" style="rounded=1;whiteSpace=wrap;html=1;" parent="1" vertex="1">
          <mxGeometry x="165" y="60" width="115" height="20" as="geometry" />
        </mxCell>
        <mxCell id="ISAkBCmt_qR4zHe4Otup-2" style="edgeStyle=orthogonalEdgeStyle;rounded=0;orthogonalLoop=1;jettySize=auto;html=1;exitX=1;exitY=0.5;exitDx=0;exitDy=0;entryX=1;entryY=0.25;entryDx=0;entryDy=0;" edge="1" parent="1" source="o4_kayTOdFwrDbjzOuFa-1" target="o4_kayTOdFwrDbjzOuFa-1">
          <mxGeometry relative="1" as="geometry" />
        </mxCell>
        <mxCell id="ISAkBCmt_qR4zHe4Otup-3" value="" style="endArrow=classic;html=1;rounded=0;entryX=1.016;entryY=0.656;entryDx=0;entryDy=0;entryPerimeter=0;exitX=-0.008;exitY=0.673;exitDx=0;exitDy=0;exitPerimeter=0;" edge="1" parent="1" source="o4_kayTOdFwrDbjzOuFa-3" target="o4_kayTOdFwrDbjzOuFa-1">
          <mxGeometry width="50" height="50" relative="1" as="geometry">
            <mxPoint x="430" y="230" as="sourcePoint" />
            <mxPoint x="480" y="180" as="targetPoint" />
          </mxGeometry>
        </mxCell>
      </root>
    </mxGraphModel>
  </diagram>
</mxfile>
